<svg xmlns="http://www.w3.org/2000/svg" xmlns:xlink="http://www.w3.org/1999/xlink" width="151.876" height="46.187" viewBox="0 0 151.876 46.187">
  <defs>
    <clipPath id="clip-path">
      <rect id="Rectangle_7087" data-name="Rectangle 7087" width="151.876" height="46.187" fill="none"/>
    </clipPath>
  </defs>
  <g id="Group_40656" data-name="Group 40656" transform="translate(0 0)">
    <g id="Group_40655" data-name="Group 40655" transform="translate(0 0)" clip-path="url(#clip-path)">
      <path id="Path_63875" data-name="Path 63875" d="M146.005,1.042a4.834,4.834,0,0,1,4.829,4.829V40.316a4.834,4.834,0,0,1-4.829,4.829H5.871a4.835,4.835,0,0,1-4.829-4.829V5.87A4.834,4.834,0,0,1,5.871,1.042Zm0-1.042H5.871A5.871,5.871,0,0,0,0,5.87V40.316a5.871,5.871,0,0,0,5.871,5.871H146.005a5.871,5.871,0,0,0,5.87-5.871V5.87A5.871,5.871,0,0,0,146.005,0"/>
      <path id="Path_63876" data-name="Path 63876" d="M142.946,148.466c-2.464,4.275-.9,10.763,1.827,14.7,1.36,1.967,2.737,3.733,4.623,3.733l.108,0a5.7,5.7,0,0,0,2.145-.572,5.876,5.876,0,0,1,2.542-.6,5.527,5.527,0,0,1,2.419.582,5.121,5.121,0,0,0,2.318.556c2.124-.039,3.429-1.944,4.579-3.625a16.065,16.065,0,0,0,2.006-4.109l.008-.026a.239.239,0,0,0-.127-.293l-.017-.007a6.089,6.089,0,0,1-3.69-5.576,6.268,6.268,0,0,1,2.962-5.24l.023-.015a.238.238,0,0,0,.068-.335,6.891,6.891,0,0,0-5.421-2.944c-.154-.016-.313-.023-.473-.023a9.447,9.447,0,0,0-3.4.85,5.464,5.464,0,0,1-1.63.487,5.333,5.333,0,0,1-1.686-.493,8.171,8.171,0,0,0-2.972-.755h-.075a7.286,7.286,0,0,0-6.133,3.713" transform="translate(-126.954 -129.594)"/>
      <path id="Path_63877" data-name="Path 63877" d="M259.022,78.325a6.652,6.652,0,0,0-4.393,2.254,6.233,6.233,0,0,0-1.578,4.622.24.24,0,0,0,.218.207c.1.008.205.012.309.012a5.629,5.629,0,0,0,4.146-2.127,6.573,6.573,0,0,0,1.545-4.755.24.24,0,0,0-.247-.213" transform="translate(-226.657 -70.166)"/>
      <path id="Path_63878" data-name="Path 63878" d="M477.064,77.149h2.856a4.179,4.179,0,0,1,2,.464,3.392,3.392,0,0,1,1.356,1.284,3.816,3.816,0,0,1,0,3.722,3.393,3.393,0,0,1-1.356,1.284,4.18,4.18,0,0,1-2,.464h-2.856Zm2.815,6.743a3.766,3.766,0,0,0,1.763-.4,2.84,2.84,0,0,0,1.175-1.108,3.423,3.423,0,0,0,0-3.258,2.84,2.84,0,0,0-1.175-1.108,3.767,3.767,0,0,0-1.763-.4H477.59v6.269Z" transform="translate(-427.369 -69.113)"/>
      <path id="Path_63879" data-name="Path 63879" d="M552.914,99.485a2.522,2.522,0,0,1-.964-.974,3,3,0,0,1,0-2.815,2.525,2.525,0,0,1,.964-.974,2.877,2.877,0,0,1,2.753,0,2.527,2.527,0,0,1,.964.974,3,3,0,0,1,0,2.815,2.525,2.525,0,0,1-.964.974,2.877,2.877,0,0,1-2.753,0m2.485-.4a2.073,2.073,0,0,0,.773-.8,2.578,2.578,0,0,0,0-2.351,2.076,2.076,0,0,0-.773-.8,2.272,2.272,0,0,0-2.217,0,2.073,2.073,0,0,0-.773.8,2.578,2.578,0,0,0,0,2.351,2.07,2.07,0,0,0,.773.8,2.272,2.272,0,0,0,2.217,0" transform="translate(-494.14 -84.541)"/>
      <path id="Path_63880" data-name="Path 63880" d="M616.3,94.768l-2.042,5.382h-.485l-1.815-4.671-1.825,4.671h-.474l-2.042-5.382h.495l1.794,4.8,1.835-4.8h.443l1.825,4.795,1.815-4.795Z" transform="translate(-544.328 -84.896)"/>
      <path id="Path_63881" data-name="Path 63881" d="M706.676,94.959a2.289,2.289,0,0,1,.588,1.691v3.145h-.516v-3.1a1.911,1.911,0,0,0-.459-1.382,1.7,1.7,0,0,0-1.284-.474,1.979,1.979,0,0,0-1.5.567,2.106,2.106,0,0,0-.546,1.526v2.866h-.516V94.412h.495v1.165a2.047,2.047,0,0,1,.83-.887,2.557,2.557,0,0,1,1.3-.32,2.159,2.159,0,0,1,1.6.588" transform="translate(-629.277 -84.541)"/>
      <rect id="Rectangle_7086" data-name="Rectangle 7086" width="0.516" height="7.651" transform="translate(80.111 7.603)"/>
      <path id="Path_63882" data-name="Path 63882" d="M790.57,99.485a2.522,2.522,0,0,1-.964-.974,3,3,0,0,1,0-2.815,2.524,2.524,0,0,1,.964-.974,2.877,2.877,0,0,1,2.753,0,2.527,2.527,0,0,1,.964.974,3,3,0,0,1,0,2.815,2.525,2.525,0,0,1-.964.974,2.877,2.877,0,0,1-2.753,0m2.485-.4a2.074,2.074,0,0,0,.773-.8,2.579,2.579,0,0,0,0-2.351,2.077,2.077,0,0,0-.773-.8,2.273,2.273,0,0,0-2.217,0,2.073,2.073,0,0,0-.773.8,2.577,2.577,0,0,0,0,2.351,2.07,2.07,0,0,0,.773.8,2.273,2.273,0,0,0,2.217,0" transform="translate(-707.04 -84.541)"/>
      <path id="Path_63883" data-name="Path 63883" d="M855.253,94.882a1.976,1.976,0,0,1,.536,1.5V99.8h-.495v-.959a1.79,1.79,0,0,1-.753.737,2.5,2.5,0,0,1-1.186.263,2.185,2.185,0,0,1-1.418-.423,1.462,1.462,0,0,1-.041-2.2,2.3,2.3,0,0,1,1.531-.418h1.846v-.433a1.516,1.516,0,0,0-.407-1.144,1.653,1.653,0,0,0-1.191-.392,2.871,2.871,0,0,0-1.026.186,2.574,2.574,0,0,0-.83.495l-.258-.371a2.867,2.867,0,0,1,.969-.562,3.524,3.524,0,0,1,1.186-.2,2.142,2.142,0,0,1,1.536.51m-.686,4.222a1.883,1.883,0,0,0,.706-.9V97.2h-1.835a1.827,1.827,0,0,0-1.15.289.967.967,0,0,0-.356.794.993.993,0,0,0,.392.83,1.762,1.762,0,0,0,1.1.3,2.025,2.025,0,0,0,1.139-.309" transform="translate(-762.727 -84.542)"/>
      <path id="Path_63884" data-name="Path 63884" d="M913.6,72.991v7.651H913.1V79.373a2.312,2.312,0,0,1-.9.969,2.53,2.53,0,0,1-1.309.34,2.675,2.675,0,0,1-1.361-.351,2.506,2.506,0,0,1-.954-.969,2.847,2.847,0,0,1-.345-1.413,2.876,2.876,0,0,1,.345-1.418,2.463,2.463,0,0,1,.954-.969,2.708,2.708,0,0,1,1.361-.345,2.483,2.483,0,0,1,1.294.34,2.423,2.423,0,0,1,.9.949V72.991Zm-1.572,6.939a2.074,2.074,0,0,0,.773-.8,2.579,2.579,0,0,0,0-2.351,2.077,2.077,0,0,0-.773-.8,2.273,2.273,0,0,0-2.217,0,2.073,2.073,0,0,0-.773.8,2.578,2.578,0,0,0,0,2.351,2.071,2.071,0,0,0,.773.8,2.273,2.273,0,0,0,2.217,0" transform="translate(-813.623 -65.388)"/>
      <path id="Path_63885" data-name="Path 63885" d="M1001.8,99.485a2.522,2.522,0,0,1-.964-.974,3,3,0,0,1,0-2.815,2.524,2.524,0,0,1,.964-.974,2.877,2.877,0,0,1,2.753,0,2.527,2.527,0,0,1,.964.974,3,3,0,0,1,0,2.815,2.525,2.525,0,0,1-.964.974,2.877,2.877,0,0,1-2.753,0m2.485-.4a2.074,2.074,0,0,0,.773-.8,2.579,2.579,0,0,0,0-2.351,2.077,2.077,0,0,0-.773-.8,2.273,2.273,0,0,0-2.217,0,2.073,2.073,0,0,0-.773.8,2.577,2.577,0,0,0,0,2.351,2.07,2.07,0,0,0,.773.8,2.273,2.273,0,0,0,2.217,0" transform="translate(-896.264 -84.541)"/>
      <path id="Path_63886" data-name="Path 63886" d="M1071.721,94.959a2.288,2.288,0,0,1,.588,1.691v3.145h-.516v-3.1a1.911,1.911,0,0,0-.459-1.382,1.7,1.7,0,0,0-1.284-.474,1.979,1.979,0,0,0-1.495.567,2.106,2.106,0,0,0-.547,1.526v2.866h-.516V94.412h.495v1.165a2.046,2.046,0,0,1,.83-.887,2.557,2.557,0,0,1,1.3-.32,2.159,2.159,0,0,1,1.6.588" transform="translate(-956.296 -84.541)"/>
      <path id="Path_63887" data-name="Path 63887" d="M1154.59,89.7a1.3,1.3,0,0,1-.49.284,1.931,1.931,0,0,1-.614.1,1.452,1.452,0,0,1-1.083-.387,1.468,1.468,0,0,1-.382-1.078V85.1h-.99v-.443h.99V83.484h.516v1.175h1.712V85.1h-1.712v3.464a1.137,1.137,0,0,0,.253.8.969.969,0,0,0,.748.273,1.2,1.2,0,0,0,.835-.3Z" transform="translate(-1031.133 -74.788)"/>
      <path id="Path_63888" data-name="Path 63888" d="M1203.169,75.806a2.288,2.288,0,0,1,.588,1.691v3.145h-.516v-3.1a1.911,1.911,0,0,0-.459-1.382,1.7,1.7,0,0,0-1.284-.474,1.98,1.98,0,0,0-1.5.567,2.106,2.106,0,0,0-.546,1.526v2.866h-.516V72.991h.516v3.392a1.974,1.974,0,0,1,.825-.861,2.609,2.609,0,0,1,1.289-.3,2.159,2.159,0,0,1,1.6.588" transform="translate(-1074.051 -65.388)"/>
      <path id="Path_63889" data-name="Path 63889" d="M1265.147,97.228h-4.63a2.249,2.249,0,0,0,.32,1.119,2.046,2.046,0,0,0,.809.758,2.434,2.434,0,0,0,1.15.268,2.461,2.461,0,0,0,.974-.191,1.9,1.9,0,0,0,.748-.562l.3.34a2.3,2.3,0,0,1-.882.65,3.07,3.07,0,0,1-2.583-.124,2.541,2.541,0,0,1-.985-.969,2.782,2.782,0,0,1-.356-1.413,2.927,2.927,0,0,1,.335-1.407,2.474,2.474,0,0,1,.923-.974,2.667,2.667,0,0,1,2.635-.005,2.458,2.458,0,0,1,.917.964,2.9,2.9,0,0,1,.335,1.4Zm-3.578-2.15a1.925,1.925,0,0,0-.727.711,2.315,2.315,0,0,0-.314,1.036h4.124a2.158,2.158,0,0,0-.309-1.031,2,2,0,0,0-1.753-.969,2.063,2.063,0,0,0-1.021.253" transform="translate(-1128.76 -84.542)"/>
      <path id="Path_63890" data-name="Path 63890" d="M466.548,218.088h-6.167l-1.216,2.854H456.8l5.55-12.334h2.255l5.568,12.334h-2.4Zm-.758-1.8-2.326-5.392-2.308,5.392Z" transform="translate(-409.22 -186.878)"/>
      <path id="Path_63891" data-name="Path 63891" d="M605.89,236.271a4.325,4.325,0,0,1,1.7,1.692,5.474,5.474,0,0,1,0,5.048,4.3,4.3,0,0,1-1.7,1.7,4.994,4.994,0,0,1-2.458.6,3.8,3.8,0,0,1-3.013-1.269v4.564h-2.2V235.778h2.1v1.233a3.408,3.408,0,0,1,1.348-1,4.556,4.556,0,0,1,1.771-.335,5,5,0,0,1,2.458.6m-.7,6.343a3.29,3.29,0,0,0,0-4.264,2.663,2.663,0,0,0-2-.811,2.835,2.835,0,0,0-1.427.361,2.612,2.612,0,0,0-1,1.031,3.434,3.434,0,0,0,0,3.1,2.608,2.608,0,0,0,1,1.031,2.831,2.831,0,0,0,1.427.361,2.662,2.662,0,0,0,2-.811" transform="translate(-535.901 -211.123)"/>
      <path id="Path_63892" data-name="Path 63892" d="M721.928,236.271a4.324,4.324,0,0,1,1.7,1.692,5.474,5.474,0,0,1,0,5.048,4.3,4.3,0,0,1-1.7,1.7,4.994,4.994,0,0,1-2.458.6,3.8,3.8,0,0,1-3.013-1.269v4.564h-2.2V235.778h2.1v1.233a3.409,3.409,0,0,1,1.348-1,4.557,4.557,0,0,1,1.771-.335,5,5,0,0,1,2.458.6m-.7,6.343a3.29,3.29,0,0,0,0-4.264,2.663,2.663,0,0,0-2-.811,2.834,2.834,0,0,0-1.427.361,2.611,2.611,0,0,0-1,1.031,3.433,3.433,0,0,0,0,3.1,2.607,2.607,0,0,0,1,1.031,2.831,2.831,0,0,0,1.427.361,2.662,2.662,0,0,0,2-.811" transform="translate(-639.852 -211.123)"/>
      <path id="Path_63893" data-name="Path 63893" d="M871.131,219.2a5.751,5.751,0,0,1-2.106-1.075l.793-1.78a6.238,6.238,0,0,0,1.859.978,6.754,6.754,0,0,0,2.211.379,3.821,3.821,0,0,0,2.053-.441,1.334,1.334,0,0,0,.678-1.163,1.126,1.126,0,0,0-.379-.872,2.665,2.665,0,0,0-.96-.537q-.582-.194-1.586-.44a18.446,18.446,0,0,1-2.282-.67,3.753,3.753,0,0,1-1.5-1.048,2.824,2.824,0,0,1-.625-1.929,3.292,3.292,0,0,1,.555-1.859,3.756,3.756,0,0,1,1.674-1.33,6.782,6.782,0,0,1,2.74-.493,8.865,8.865,0,0,1,2.22.282,6.14,6.14,0,0,1,1.885.811l-.722,1.78a7.141,7.141,0,0,0-1.692-.723,6.336,6.336,0,0,0-1.709-.247,3.571,3.571,0,0,0-2.017.458,1.414,1.414,0,0,0-.661,1.216,1.1,1.1,0,0,0,.379.863,2.733,2.733,0,0,0,.96.529q.582.194,1.586.441a16.7,16.7,0,0,1,2.255.661,3.866,3.866,0,0,1,1.506,1.048,2.764,2.764,0,0,1,.625,1.9,3.249,3.249,0,0,1-.555,1.85,3.774,3.774,0,0,1-1.683,1.321,6.85,6.85,0,0,1-2.749.493,9.415,9.415,0,0,1-2.758-.405" transform="translate(-778.501 -185.363)"/>
      <path id="Path_63894" data-name="Path 63894" d="M978.27,227.7a2.593,2.593,0,0,1-.943.476,4.246,4.246,0,0,1-1.172.159,3.324,3.324,0,0,1-2.4-.81,3.119,3.119,0,0,1-.846-2.361v-4.528h-1.551v-1.762h1.551v-2.15h2.2v2.15h2.52v1.762h-2.52v4.476a1.488,1.488,0,0,0,.335,1.048,1.255,1.255,0,0,0,.969.361,1.935,1.935,0,0,0,1.233-.388Z" transform="translate(-870.179 -194.151)"/>
      <path id="Path_63895" data-name="Path 63895" d="M1047.04,244.694a4.494,4.494,0,0,1-1.788-1.718,5.138,5.138,0,0,1,0-4.978,4.515,4.515,0,0,1,1.788-1.709,5.71,5.71,0,0,1,5.163,0,4.517,4.517,0,0,1,1.788,1.709,5.137,5.137,0,0,1,0,4.978,4.5,4.5,0,0,1-1.788,1.718,5.711,5.711,0,0,1-5.163,0m4.581-2.079a3.263,3.263,0,0,0,0-4.264,2.692,2.692,0,0,0-2.009-.811,2.663,2.663,0,0,0-2,.811,3.29,3.29,0,0,0,0,4.264,2.662,2.662,0,0,0,2,.811,2.691,2.691,0,0,0,2.009-.811" transform="translate(-935.794 -211.123)"/>
      <path id="Path_63896" data-name="Path 63896" d="M1166.6,235.673v2.1a2.791,2.791,0,0,0-.511-.053,2.66,2.66,0,0,0-2.009.749,2.985,2.985,0,0,0-.722,2.159v4.564h-2.2v-9.409h2.1v1.374a3.67,3.67,0,0,1,3.348-1.48" transform="translate(-1040.198 -211.124)"/>
      <path id="Path_63897" data-name="Path 63897" d="M1232.65,241.187h-7.383a2.559,2.559,0,0,0,1.013,1.648,3.322,3.322,0,0,0,2.035.608,3.43,3.43,0,0,0,2.555-1.022l1.181,1.357a3.977,3.977,0,0,1-1.6,1.145,6.355,6.355,0,0,1-4.916-.229,4.44,4.44,0,0,1-1.824-1.718,4.85,4.85,0,0,1-.643-2.493,4.923,4.923,0,0,1,.625-2.476,4.438,4.438,0,0,1,1.736-1.718,5.065,5.065,0,0,1,2.5-.617,4.936,4.936,0,0,1,2.458.608,4.307,4.307,0,0,1,1.692,1.709,5.182,5.182,0,0,1,.608,2.546q0,.229-.035.652m-6.511-3.128a2.631,2.631,0,0,0-.89,1.665h5.339a2.6,2.6,0,0,0-.863-1.656,2.626,2.626,0,0,0-1.8-.634,2.658,2.658,0,0,0-1.789.626" transform="translate(-1095.661 -211.123)"/>
    </g>
  </g>
</svg>
