<svg xmlns="http://www.w3.org/2000/svg" xmlns:xlink="http://www.w3.org/1999/xlink" width="151.876" height="46.186" viewBox="0 0 151.876 46.186">
  <defs>
    <clipPath id="clip-path">
      <rect id="Rectangle_7085" data-name="Rectangle 7085" width="151.876" height="46.186" fill="none"/>
    </clipPath>
  </defs>
  <g id="Group_40654" data-name="Group 40654" transform="translate(0 0)">
    <g id="Group_40653" data-name="Group 40653" transform="translate(0 0)" clip-path="url(#clip-path)">
      <path id="Path_63850" data-name="Path 63850" d="M146.005,1.042a4.834,4.834,0,0,1,4.829,4.829V40.316a4.834,4.834,0,0,1-4.829,4.829H5.871a4.835,4.835,0,0,1-4.829-4.829V5.87A4.834,4.834,0,0,1,5.871,1.042Zm0-1.042H5.871A5.871,5.871,0,0,0,0,5.87V40.316a5.871,5.871,0,0,0,5.871,5.871H146.005a5.871,5.871,0,0,0,5.87-5.871V5.87A5.871,5.871,0,0,0,146.005,0"/>
      <path id="Path_63851" data-name="Path 63851" d="M404.645,82.334h-4.186l-.918,2.031h-.567l3.32-7.218h.526l3.32,7.218h-.567Zm-.2-.443-1.9-4.166-1.887,4.166Z" transform="translate(-357.414 -69.112)"/>
      <path id="Path_63852" data-name="Path 63852" d="M471.368,94.768l-2.433,5.382h-.526l-2.423-5.382h.547l2.145,4.815,2.165-4.815Z" transform="translate(-417.445 -84.896)"/>
      <path id="Path_63853" data-name="Path 63853" d="M526.045,94.881a1.976,1.976,0,0,1,.536,1.5v3.413h-.495v-.959a1.79,1.79,0,0,1-.753.737,2.5,2.5,0,0,1-1.186.263,2.185,2.185,0,0,1-1.418-.423,1.462,1.462,0,0,1-.041-2.2,2.3,2.3,0,0,1,1.531-.418h1.846v-.433a1.516,1.516,0,0,0-.407-1.144,1.653,1.653,0,0,0-1.191-.392,2.87,2.87,0,0,0-1.026.186,2.571,2.571,0,0,0-.83.495l-.258-.371a2.866,2.866,0,0,1,.969-.562,3.521,3.521,0,0,1,1.186-.2,2.143,2.143,0,0,1,1.536.51m-.686,4.222a1.883,1.883,0,0,0,.706-.9V97.2H524.23a1.826,1.826,0,0,0-1.15.289.967.967,0,0,0-.356.794.994.994,0,0,0,.392.83,1.762,1.762,0,0,0,1.1.3,2.024,2.024,0,0,0,1.139-.309" transform="translate(-467.812 -84.541)"/>
      <path id="Path_63854" data-name="Path 63854" d="M583.109,74.9a.39.39,0,0,1-.124-.294.423.423,0,0,1,.423-.423.417.417,0,0,1,.3.119.391.391,0,0,1,.124.294.423.423,0,0,1-.423.423.416.416,0,0,1-.3-.119m.041,1.428h.516v5.382h-.516Z" transform="translate(-522.257 -66.452)"/>
      <rect id="Rectangle_7081" data-name="Rectangle 7081" width="0.516" height="7.651" transform="translate(63.584 7.603)"/>
      <path id="Path_63855" data-name="Path 63855" d="M635.419,94.881a1.976,1.976,0,0,1,.536,1.5v3.413h-.495v-.959a1.791,1.791,0,0,1-.753.737,2.5,2.5,0,0,1-1.186.263,2.184,2.184,0,0,1-1.418-.423,1.462,1.462,0,0,1-.041-2.2,2.3,2.3,0,0,1,1.531-.418h1.846v-.433a1.516,1.516,0,0,0-.407-1.144,1.653,1.653,0,0,0-1.191-.392,2.87,2.87,0,0,0-1.026.186,2.571,2.571,0,0,0-.83.495l-.258-.371a2.866,2.866,0,0,1,.969-.562,3.521,3.521,0,0,1,1.186-.2,2.143,2.143,0,0,1,1.536.51m-.686,4.222a1.883,1.883,0,0,0,.706-.9V97.2H633.6a1.826,1.826,0,0,0-1.15.289.967.967,0,0,0-.356.794.994.994,0,0,0,.392.83,1.762,1.762,0,0,0,1.1.3,2.024,2.024,0,0,0,1.139-.309" transform="translate(-565.793 -84.541)"/>
      <path id="Path_63856" data-name="Path 63856" d="M698,75.563a2.466,2.466,0,0,1,.954.969,2.878,2.878,0,0,1,.345,1.418,2.848,2.848,0,0,1-.345,1.413,2.511,2.511,0,0,1-.954.969,2.677,2.677,0,0,1-1.361.351,2.506,2.506,0,0,1-1.3-.345,2.348,2.348,0,0,1-.9-.964v1.268h-.495V72.991h.516v3.5a2.321,2.321,0,0,1,.9-.933,2.522,2.522,0,0,1,1.289-.335,2.71,2.71,0,0,1,1.361.345m-.279,4.367a2.06,2.06,0,0,0,.779-.8,2.578,2.578,0,0,0,0-2.351,2.063,2.063,0,0,0-.779-.8,2.169,2.169,0,0,0-1.114-.289,2.141,2.141,0,0,0-1.108.289,2.073,2.073,0,0,0-.773.8,2.579,2.579,0,0,0,0,2.351,2.07,2.07,0,0,0,.773.8,2.14,2.14,0,0,0,1.108.289,2.168,2.168,0,0,0,1.114-.289" transform="translate(-621.656 -65.388)"/>
      <rect id="Rectangle_7082" data-name="Rectangle 7082" width="0.516" height="7.651" transform="translate(79.246 7.603)"/>
      <path id="Path_63857" data-name="Path 63857" d="M786.081,97.228h-4.63a2.247,2.247,0,0,0,.32,1.119,2.044,2.044,0,0,0,.809.758,2.433,2.433,0,0,0,1.15.268,2.461,2.461,0,0,0,.974-.191,1.9,1.9,0,0,0,.747-.562l.3.34a2.294,2.294,0,0,1-.882.65,3.07,3.07,0,0,1-2.583-.124,2.541,2.541,0,0,1-.985-.969,2.782,2.782,0,0,1-.356-1.413,2.926,2.926,0,0,1,.335-1.407,2.472,2.472,0,0,1,.923-.974,2.667,2.667,0,0,1,2.635-.005,2.456,2.456,0,0,1,.918.964,2.9,2.9,0,0,1,.335,1.4Zm-3.578-2.15a1.925,1.925,0,0,0-.727.711,2.315,2.315,0,0,0-.314,1.036h4.124a2.159,2.159,0,0,0-.309-1.031,2,2,0,0,0-1.753-.969,2.063,2.063,0,0,0-1.021.253" transform="translate(-699.597 -84.542)"/>
      <path id="Path_63858" data-name="Path 63858" d="M866.791,99.485a2.523,2.523,0,0,1-.964-.974,3,3,0,0,1,0-2.815,2.524,2.524,0,0,1,.964-.974,2.877,2.877,0,0,1,2.753,0,2.527,2.527,0,0,1,.964.974,3,3,0,0,1,0,2.815,2.526,2.526,0,0,1-.964.974,2.878,2.878,0,0,1-2.753,0m2.485-.4a2.073,2.073,0,0,0,.773-.8,2.579,2.579,0,0,0,0-2.351,2.076,2.076,0,0,0-.773-.8,2.273,2.273,0,0,0-2.217,0,2.073,2.073,0,0,0-.773.8,2.577,2.577,0,0,0,0,2.351,2.07,2.07,0,0,0,.773.8,2.272,2.272,0,0,0,2.217,0" transform="translate(-775.322 -84.541)"/>
      <path id="Path_63859" data-name="Path 63859" d="M936.715,94.96a2.289,2.289,0,0,1,.588,1.691V99.8h-.516v-3.1a1.911,1.911,0,0,0-.459-1.382,1.7,1.7,0,0,0-1.284-.474,1.979,1.979,0,0,0-1.5.567A2.106,2.106,0,0,0,933,96.929V99.8h-.516V94.413h.495v1.165a2.048,2.048,0,0,1,.83-.887,2.557,2.557,0,0,1,1.3-.32,2.16,2.16,0,0,1,1.6.588" transform="translate(-835.353 -84.542)"/>
      <path id="Path_63860" data-name="Path 63860" d="M1019.584,89.7a1.3,1.3,0,0,1-.49.284,1.928,1.928,0,0,1-.613.1,1.453,1.453,0,0,1-1.083-.387,1.468,1.468,0,0,1-.382-1.077V85.1h-.99v-.443h.99V83.484h.516v1.175h1.712V85.1h-1.712v3.464a1.137,1.137,0,0,0,.253.8.968.968,0,0,0,.747.273,1.2,1.2,0,0,0,.835-.3Z" transform="translate(-910.19 -74.788)"/>
      <path id="Path_63861" data-name="Path 63861" d="M1068.162,75.806a2.288,2.288,0,0,1,.588,1.691v3.145h-.516v-3.1a1.91,1.91,0,0,0-.459-1.382,1.7,1.7,0,0,0-1.284-.474,1.979,1.979,0,0,0-1.5.567,2.106,2.106,0,0,0-.547,1.526v2.866h-.516V72.991h.516v3.392a1.976,1.976,0,0,1,.825-.861,2.609,2.609,0,0,1,1.289-.3,2.159,2.159,0,0,1,1.6.588" transform="translate(-953.108 -65.388)"/>
      <path id="Path_63862" data-name="Path 63862" d="M1130.141,97.228h-4.63a2.244,2.244,0,0,0,.32,1.119,2.043,2.043,0,0,0,.809.758,2.432,2.432,0,0,0,1.15.268,2.461,2.461,0,0,0,.974-.191,1.9,1.9,0,0,0,.748-.562l.3.34a2.294,2.294,0,0,1-.882.65,3.07,3.07,0,0,1-2.583-.124,2.541,2.541,0,0,1-.985-.969,2.782,2.782,0,0,1-.356-1.413,2.926,2.926,0,0,1,.335-1.407,2.471,2.471,0,0,1,.923-.974,2.667,2.667,0,0,1,2.634-.005,2.454,2.454,0,0,1,.918.964,2.9,2.9,0,0,1,.335,1.4Zm-3.578-2.15a1.926,1.926,0,0,0-.727.711,2.313,2.313,0,0,0-.314,1.036h4.124a2.158,2.158,0,0,0-.309-1.031,2,2,0,0,0-1.753-.969,2.063,2.063,0,0,0-1.021.253" transform="translate(-1007.817 -84.542)"/>
      <path id="Path_63863" data-name="Path 63863" d="M399.63,215.705h2.118v4.8a6.731,6.731,0,0,1-2.17,1.137,8.331,8.331,0,0,1-2.549.4,6.874,6.874,0,0,1-3.323-.8,5.946,5.946,0,0,1-2.325-2.213,6.436,6.436,0,0,1,0-6.371,5.934,5.934,0,0,1,2.333-2.213,6.959,6.959,0,0,1,3.349-.8,7.316,7.316,0,0,1,2.755.5,5.411,5.411,0,0,1,2.084,1.464l-1.412,1.378a4.53,4.53,0,0,0-3.324-1.378,4.7,4.7,0,0,0-2.264.534,3.892,3.892,0,0,0-1.55,1.5,4.31,4.31,0,0,0-.56,2.2,4.241,4.241,0,0,0,.56,2.17,4.009,4.009,0,0,0,1.55,1.515,4.54,4.54,0,0,0,2.247.551,4.851,4.851,0,0,0,2.48-.62Z" transform="translate(-349.857 -187.806)"/>
      <path id="Path_63864" data-name="Path 63864" d="M519.541,246.564a4.391,4.391,0,0,1-1.748-1.679,5.02,5.02,0,0,1,0-4.865,4.412,4.412,0,0,1,1.748-1.67,5.581,5.581,0,0,1,5.045,0,4.417,4.417,0,0,1,1.748,1.67,5.021,5.021,0,0,1,0,4.865,4.4,4.4,0,0,1-1.748,1.679,5.581,5.581,0,0,1-5.045,0m4.477-2.032a3.189,3.189,0,0,0,0-4.167,2.63,2.63,0,0,0-1.963-.792,2.6,2.6,0,0,0-1.954.792,3.216,3.216,0,0,0,0,4.167,2.6,2.6,0,0,0,1.954.792,2.63,2.63,0,0,0,1.963-.792" transform="translate(-463.293 -212.982)"/>
      <path id="Path_63865" data-name="Path 63865" d="M626.166,246.564a4.391,4.391,0,0,1-1.748-1.679,5.021,5.021,0,0,1,0-4.865,4.412,4.412,0,0,1,1.748-1.67,5.581,5.581,0,0,1,5.045,0,4.416,4.416,0,0,1,1.748,1.67,5.021,5.021,0,0,1,0,4.865,4.4,4.4,0,0,1-1.748,1.679,5.581,5.581,0,0,1-5.045,0m4.477-2.032a3.189,3.189,0,0,0,0-4.167,2.63,2.63,0,0,0-1.963-.792,2.6,2.6,0,0,0-1.954.792,3.216,3.216,0,0,0,0,4.167,2.6,2.6,0,0,0,1.954.792,2.63,2.63,0,0,0,1.963-.792" transform="translate(-558.811 -212.982)"/>
      <path id="Path_63866" data-name="Path 63866" d="M740.3,237.85v7.8q0,4.856-4.959,4.856a9.2,9.2,0,0,1-2.514-.336,5.335,5.335,0,0,1-1.963-.973l.964-1.619a4.611,4.611,0,0,0,1.524.8,5.979,5.979,0,0,0,1.868.3,3.085,3.085,0,0,0,2.221-.689,2.816,2.816,0,0,0,.706-2.1v-.482a3.539,3.539,0,0,1-1.343.913,4.735,4.735,0,0,1-1.739.31,4.987,4.987,0,0,1-2.368-.56,4.2,4.2,0,0,1-1.67-1.576,4.419,4.419,0,0,1-.611-2.325,4.375,4.375,0,0,1,.611-2.316,4.162,4.162,0,0,1,1.67-1.558,5.053,5.053,0,0,1,2.368-.551,4.855,4.855,0,0,1,1.817.327,3.355,3.355,0,0,1,1.369,1V237.85Zm-2.9,6.225a2.484,2.484,0,0,0,.783-1.9,2.438,2.438,0,0,0-.783-1.877,3.168,3.168,0,0,0-4.03,0,2.437,2.437,0,0,0-.784,1.877,2.483,2.483,0,0,0,.784,1.9,3.139,3.139,0,0,0,4.03,0" transform="translate(-654.329 -212.982)"/>
      <rect id="Rectangle_7083" data-name="Rectangle 7083" width="2.153" height="12.777" transform="translate(88.793 21.287)"/>
      <path id="Path_63867" data-name="Path 63867" d="M902.279,243.137h-7.215a2.5,2.5,0,0,0,.99,1.61,3.246,3.246,0,0,0,1.989.594,3.352,3.352,0,0,0,2.5-1l1.154,1.326a3.885,3.885,0,0,1-1.567,1.119,6.209,6.209,0,0,1-4.8-.224,4.338,4.338,0,0,1-1.782-1.679,4.738,4.738,0,0,1-.629-2.437,4.812,4.812,0,0,1,.611-2.419,4.338,4.338,0,0,1,1.7-1.679,4.95,4.95,0,0,1,2.445-.6,4.824,4.824,0,0,1,2.4.594,4.208,4.208,0,0,1,1.653,1.67,5.066,5.066,0,0,1,.594,2.488q0,.224-.034.637m-6.363-3.057a2.573,2.573,0,0,0-.87,1.627h5.218a2.539,2.539,0,0,0-.844-1.619,2.566,2.566,0,0,0-1.756-.62,2.6,2.6,0,0,0-1.748.611" transform="translate(-799.899 -212.982)"/>
      <path id="Path_63868" data-name="Path 63868" d="M1058.3,211.814a3.97,3.97,0,0,1,1.782,1.481,4.524,4.524,0,0,1,0,4.572,3.949,3.949,0,0,1-1.782,1.489,6.675,6.675,0,0,1-2.729.517h-2.721v3.478h-2.239V211.3h4.959a6.675,6.675,0,0,1,2.729.517m-.611,5.545a2.455,2.455,0,0,0,0-3.547,3.439,3.439,0,0,0-2.221-.62h-2.617v4.787h2.617a3.44,3.44,0,0,0,2.221-.62" transform="translate(-941.175 -189.287)"/>
      <rect id="Rectangle_7084" data-name="Rectangle 7084" width="2.153" height="12.777" transform="translate(121.735 21.287)"/>
      <path id="Path_63869" data-name="Path 63869" d="M1217.414,238.72a3.761,3.761,0,0,1,1.076,2.936v5.39h-2.032v-1.119a2.5,2.5,0,0,1-1.128.921,4.411,4.411,0,0,1-1.765.319,4.328,4.328,0,0,1-1.808-.353,2.792,2.792,0,0,1-1.2-.982,2.49,2.49,0,0,1-.422-1.421,2.435,2.435,0,0,1,.921-1.989,4.575,4.575,0,0,1,2.9-.749h2.376v-.138a1.885,1.885,0,0,0-.577-1.481,2.5,2.5,0,0,0-1.714-.517,4.95,4.95,0,0,0-1.524.241,3.749,3.749,0,0,0-1.266.672l-.844-1.567a5.229,5.229,0,0,1,1.739-.844,7.743,7.743,0,0,1,2.152-.293,4.485,4.485,0,0,1,3.108.973m-1.963,6.509a2.014,2.014,0,0,0,.887-1.059V243.1h-2.222q-1.86,0-1.86,1.223a1.1,1.1,0,0,0,.465.93,2.131,2.131,0,0,0,1.292.344,2.778,2.778,0,0,0,1.438-.37" transform="translate(-1084.081 -212.982)"/>
      <path id="Path_63870" data-name="Path 63870" d="M1309.061,238.739l-4.3,9.936a4.628,4.628,0,0,1-1.464,2.109,3.507,3.507,0,0,1-2.083.611,4.282,4.282,0,0,1-1.36-.224,3.008,3.008,0,0,1-1.1-.62l.861-1.584a2.343,2.343,0,0,0,.732.465,2.243,2.243,0,0,0,.852.172,1.468,1.468,0,0,0,.939-.293,2.6,2.6,0,0,0,.68-.982l.155-.362-4.012-9.23h2.239l2.893,6.8,2.91-6.8Z" transform="translate(-1163.459 -213.87)"/>
      <path id="Path_63871" data-name="Path 63871" d="M259.2,190.816l-4.549-2.625-3.741,3.617,3.42,3.306L259.2,192.3a.858.858,0,0,0,0-1.485" transform="translate(-224.772 -168.588)"/>
      <path id="Path_63872" data-name="Path 63872" d="M142.007,110.7,137,107.815l-10.971-5.622,12.392,11.979Z" transform="translate(-112.901 -91.548)"/>
      <path id="Path_63873" data-name="Path 63873" d="M127.777,240.439l10.808-5.954,4.666-2.693-3.264-3.155Z" transform="translate(-114.466 -204.821)"/>
      <path id="Path_63874" data-name="Path 63874" d="M118.9,106.846l-.012,24.192,12.519-12.1Z" transform="translate(-106.504 -95.716)"/>
    </g>
  </g>
</svg>
